solid JSxCAD
facet normal 0.033908716329229455 0.4776030995791225 -0.877921111620696
outer loop
vertex -0.50649 13.98203 0
vertex 1.51428 13.83856 0
vertex 9.53515 6.88967 -3.47051
endloop
endfacet
facet normal -0.20135300345397864 -0.031234747974624288 -0.9790206118969221
outer loop
vertex 13.13881 -0.50649 -4.78214
vertex 12.73573 -2.50653 -4.63543
vertex -9.54139 -4.19108 0
endloop
endfacet
facet normal 0.9187990500724917 -0.20970159574611802 -0.33441523040588117
outer loop
vertex 13.13881 -0.50649 -4.78214
vertex 16.55901 -0.50649 4.61479
vertex 16.15593 -2.50653 4.7615
endloop
endfacet
facet normal 0.9187990500724917 -0.20970159574611807 -0.3344152304058812
outer loop
vertex 13.13881 -0.50649 -4.78214
vertex 16.15593 -2.50653 4.7615
vertex 12.73573 -2.50653 -4.63543
endloop
endfacet
facet normal 0.9373332110353669 0.07082054814243145 -0.3411611077642553
outer loop
vertex 16.42419 1.51428 4.66386
vertex 16.55901 -0.50649 4.61479
vertex 13.13881 -0.50649 -4.78214
endloop
endfacet
facet normal 0.937333211035367 0.07082054814243093 -0.3411611077642552
outer loop
vertex 16.42419 1.51428 4.66386
vertex 13.13881 -0.50649 -4.78214
vertex 13.00399 1.51428 -4.73307
endloop
endfacet
facet normal -0.20970202722024564 0.9777653398334998 0
outer loop
vertex -2.50653 13.55308 0
vertex -2.50653 13.55308 10
vertex -0.50649 13.98203 10
endloop
endfacet
facet normal -0.20970202722024564 0.9777653398334998 0
outer loop
vertex -2.50653 13.55308 0
vertex -0.50649 13.98203 10
vertex -0.50649 13.98203 0
endloop
endfacet
facet normal -0.07515462678025941 0.3504190692285579 -0.9335728455747367
outer loop
vertex -2.50653 13.55308 0
vertex -0.50649 13.98203 0
vertex 9.53515 6.88967 -3.47051
endloop
endfacet
facet normal -0.13343206240091848 0.2573390757660211 -0.9570645144436855
outer loop
vertex -2.50653 13.55308 0
vertex 9.53515 6.88967 -3.47051
vertex -4.40394 12.56926 0
endloop
endfacet
facet normal -0.4603089702257081 0.8877587802605773 0
outer loop
vertex -2.50653 13.55308 0
vertex -4.40394 12.56926 0
vertex -4.40394 12.56926 10
endloop
endfacet
facet normal -0.4603089702257081 0.8877587802605773 0
outer loop
vertex -2.50653 13.55308 0
vertex -4.40394 12.56926 10
vertex -2.50653 13.55308 10
endloop
endfacet
facet normal 0.07081942462059844 0.9974891523702939 0
outer loop
vertex 1.51428 13.83856 10
vertex 1.51428 13.83856 0
vertex -0.50649 13.98203 0
endloop
endfacet
facet normal 0.07081942462059844 0.9974891523702939 0
outer loop
vertex 1.51428 13.83856 10
vertex -0.50649 13.98203 0
vertex -0.50649 13.98203 10
endloop
endfacet
facet normal 0.6354730852824035 0.02365642386197126 0.7717605402530798
outer loop
vertex 10 0 10
vertex 16.55901 -0.50649 4.61479
vertex 16.42419 1.51428 4.66386
endloop
endfacet
facet normal 0.3407890893109086 0.9401397750370108 0
outer loop
vertex 3.47305 13.12853 0
vertex 1.51428 13.83856 0
vertex 1.51428 13.83856 10
endloop
endfacet
facet normal 0.3407890893109086 0.9401397750370108 0
outer loop
vertex 3.47305 13.12853 0
vertex 1.51428 13.83856 10
vertex 3.47305 13.12853 10
endloop
endfacet
facet normal 0.5496471314911423 0.8353969301137987 0
outer loop
vertex 3.47305 13.12853 0
vertex 3.47305 13.12853 10
vertex 12.95536 6.88967 5.92641
endloop
endfacet
facet normal 0.22983415245853556 0.6340467907147669 -0.7383501402098948
outer loop
vertex 3.47305 13.12853 0
vertex 9.53515 6.88967 -3.47051
vertex 1.51428 13.83856 0
endloop
endfacet
facet normal -0.16199969058202254 0.19366496622658327 -0.9676001142557732
outer loop
vertex 11.16451 5.28964 -4.06355
vertex -4.40394 12.56926 0
vertex 9.53515 6.88967 -3.47051
endloop
endfacet
facet normal -0.8389849717786101 0.042802010446950964 -0.5424686212412141
outer loop
vertex -9.94869 1.41636 0
vertex -13.13881 -0.50649 4.78214
vertex -13.00399 1.51428 4.73307
endloop
endfacet
facet normal -0.8327045476729357 0.12223235579344441 -0.5400577630976121
outer loop
vertex -9.94869 1.41636 0
vertex -13.00399 1.51428 4.73307
vertex -9.54139 4.19108 0
endloop
endfacet
facet normal -0.20199320601123055 0.029650499080402366 -0.9789379922291236
outer loop
vertex -9.94869 1.41636 0
vertex -9.54139 4.19108 0
vertex 13.00399 1.51428 -4.73307
endloop
endfacet
facet normal -0.20199211466708994 0.010304631544562088 -0.9793329363301574
outer loop
vertex -9.94869 1.41636 0
vertex 13.00399 1.51428 -4.73307
vertex 13.13881 -0.50649 -4.78214
endloop
endfacet
facet normal -0.19891649261514624 -0.060972071447084275 -0.9781179046869247
outer loop
vertex -8.74347 -6.79423 0
vertex -9.54139 -4.19108 0
vertex 12.73573 -2.50653 -4.63543
endloop
endfacet
facet normal -0.7562692828200126 -0.6542604770753803 0
outer loop
vertex -10.40321 -6.12106 3.78646
vertex -6.12106 -11.07086 0
vertex -6.12106 -11.07086 10
endloop
endfacet
facet normal -0.7959310044225777 0.5980830254429838 0.09375783101071573
outer loop
vertex -6.12106 11.07086 10
vertex -11.16451 5.28964 4.06355
vertex -7.58758 9.11921 10
endloop
endfacet
facet normal -0.818391181187783 0.5592087834155686 0.13236846718514567
outer loop
vertex -12.33678 3.47305 4.49022
vertex -7.58758 9.11921 10
vertex -11.16451 5.28964 4.06355
endloop
endfacet
facet normal -0.8335224875282172 0.46947243691335505 -0.29126601889580034
outer loop
vertex -12.33678 3.47305 4.49022
vertex -11.16451 5.28964 4.06355
vertex -7.58758 9.11921 0
endloop
endfacet
facet normal -0.842707554026731 0.2264955474594204 -0.48840940343869466
outer loop
vertex -12.33678 3.47305 4.49022
vertex -9.54139 4.19108 0
vertex -13.00399 1.51428 4.73307
endloop
endfacet
facet normal -0.2646371346677468 0.510383144975635 0.8182152725778375
outer loop
vertex -7.74431 5.28964 13.46047
vertex -2.50653 13.55308 10
vertex -4.40394 12.56926 10
endloop
endfacet
facet normal -0.47659603487350044 0.5461642975186767 0.68888371998385
outer loop
vertex -7.74431 5.28964 13.46047
vertex -4.40394 12.56926 10
vertex -6.12106 11.07086 10
endloop
endfacet
facet normal 0.20744143286531472 0.015067618572103304 0.9781313913791699
outer loop
vertex 9.7953 2.81818 10
vertex -9.58379 1.51428 14.12999
vertex 10 0 10
endloop
endfacet
facet normal 0.6318604031719562 0.045895515733310126 0.773722193386584
outer loop
vertex 9.7953 2.81818 10
vertex 10 0 10
vertex 16.42419 1.51428 4.66386
endloop
endfacet
facet normal 0.636848338498906 0.12255919876356375 0.7611855467293215
outer loop
vertex 9.7953 2.81818 10
vertex 16.42419 1.51428 4.66386
vertex 15.75698 3.47305 4.9067
endloop
endfacet
facet normal 0.18242055524268444 -0.1408398412919824 0.9730811272087235
outer loop
vertex 6.88967 -10.1471 10
vertex -8.39104 -4.40394 13.69587
vertex -6.983 -6.12106 13.18338
endloop
endfacet
facet normal 0.5077351465823866 0.7393500572581364 -0.4422290286235771
outer loop
vertex 5.28964 11.88102 0
vertex 9.53515 6.88967 -3.47051
vertex 3.47305 13.12853 0
endloop
endfacet
facet normal 0.5656911648528887 0.8237440286331243 -0.037937861018414364
outer loop
vertex 5.28964 11.88102 0
vertex 3.47305 13.12853 0
vertex 12.95536 6.88967 5.92641
endloop
endfacet
facet normal 0.6437313169791351 0.7347746355828203 -0.21381353194885044
outer loop
vertex 5.28964 11.88102 0
vertex 12.95536 6.88967 5.92641
vertex 14.58471 5.28964 5.33338
endloop
endfacet
facet normal 0.6485827528233473 0.7236117099934253 -0.23606462229753888
outer loop
vertex 5.28964 11.88102 0
vertex 14.58471 5.28964 5.33338
vertex 11.16451 5.28964 -4.06355
endloop
endfacet
facet normal 0.6051472282362074 0.7321358472423789 -0.3126882366522915
outer loop
vertex 5.28964 11.88102 0
vertex 11.16451 5.28964 -4.06355
vertex 9.53515 6.88967 -3.47051
endloop
endfacet
facet normal -0.19907339400392643 0.05350831121613584 -0.9785226846785693
outer loop
vertex 12.33678 3.47305 -4.49022
vertex 13.00399 1.51428 -4.73307
vertex -9.54139 4.19108 0
endloop
endfacet
facet normal -0.18968301618276304 0.10683581275083208 -0.9760156056568352
outer loop
vertex 12.33678 3.47305 -4.49022
vertex -7.58758 9.11921 0
vertex 11.16451 5.28964 -4.06355
endloop
endfacet
facet normal 0.7746252637003388 0.5660966032886242 -0.28194030677124327
outer loop
vertex 12.33678 3.47305 -4.49022
vertex 11.16451 5.28964 -4.06355
vertex 14.58471 5.28964 5.33338
endloop
endfacet
facet normal 0.7746244866854 0.5660976579465743 -0.28194032399567154
outer loop
vertex 12.33678 3.47305 -4.49022
vertex 14.58471 5.28964 5.33338
vertex 15.75698 3.47305 4.9067
endloop
endfacet
facet normal 0.8834426030475836 0.3407884466640444 -0.3215468888681979
outer loop
vertex 12.33678 3.47305 -4.49022
vertex 15.75698 3.47305 4.9067
vertex 16.42419 1.51428 4.66386
endloop
endfacet
facet normal 0.8834422187981809 0.3407898975903314 -0.3215464068300538
outer loop
vertex 12.33678 3.47305 -4.49022
vertex 16.42419 1.51428 4.66386
vertex 13.00399 1.51428 -4.73307
endloop
endfacet
facet normal -0.07490691337675315 -0.3492640704745105 -0.9340254618606197
outer loop
vertex 8.56926 -7.58758 -3.11896
vertex -0.50649 -13.98203 0
vertex -2.50653 -13.55308 0
endloop
endfacet
facet normal -0.105882063064703 -0.29921398708201224 -0.9482931923491003
outer loop
vertex 8.56926 -7.58758 -3.11896
vertex -2.50653 -13.55308 0
vertex 10.40321 -6.12106 -3.78646
endloop
endfacet
facet normal 0.6451341704834915 -0.7270945110633822 -0.23480944200793644
outer loop
vertex 13.82341 -6.12106 5.61047
vertex 5.28964 -11.88102 0
vertex 10.40321 -6.12106 -3.78646
endloop
endfacet
facet normal -0.8362201354902553 -0.1227484074736119 -0.5344798531875182
outer loop
vertex -9.94869 -1.41636 0
vertex -9.54139 -4.19108 0
vertex -13.13881 -0.50649 4.78214
endloop
endfacet
facet normal -0.8318875416783792 0 -0.5549442476504308
outer loop
vertex -9.94869 -1.41636 0
vertex -13.13881 -0.50649 4.78214
vertex -9.94869 1.41636 0
endloop
endfacet
facet normal -0.2028258738378359 0 -0.9792148206098182
outer loop
vertex -9.94869 -1.41636 0
vertex -9.94869 1.41636 0
vertex 13.13881 -0.50649 -4.78214
endloop
endfacet
facet normal -0.20161852876905398 -0.02959550036314855 -0.97901689220118
outer loop
vertex -9.94869 -1.41636 0
vertex 13.13881 -0.50649 -4.78214
vertex -9.54139 -4.19108 0
endloop
endfacet
facet normal -0.18288679129587046 0.13742583822469198 -0.9734816693486023
outer loop
vertex -6.12106 11.07086 0
vertex 11.16451 5.28964 -4.06355
vertex -7.58758 9.11921 0
endloop
endfacet
facet normal -0.7919925026938375 0.5951235339587361 -0.13629326837821887
outer loop
vertex -6.12106 11.07086 0
vertex -7.58758 9.11921 0
vertex -11.16451 5.28964 4.06355
endloop
endfacet
facet normal -0.7535523925424921 0.6573878548417864 0
outer loop
vertex -6.12106 11.07086 0
vertex -11.16451 5.28964 4.06355
vertex -6.12106 11.07086 10
endloop
endfacet
facet normal -0.6574900448398119 0.7534632313102891 0
outer loop
vertex -6.12106 11.07086 0
vertex -6.12106 11.07086 10
vertex -4.40394 12.56926 10
endloop
endfacet
facet normal -0.6574900448398119 0.7534632313102891 0
outer loop
vertex -6.12106 11.07086 0
vertex -4.40394 12.56926 10
vertex -4.40394 12.56926 0
endloop
endfacet
facet normal -0.1645394690645455 0.1885571363588576 -0.968180236034647
outer loop
vertex -6.12106 11.07086 0
vertex -4.40394 12.56926 0
vertex 11.16451 5.28964 -4.06355
endloop
endfacet
facet normal -0.18028487811250288 -0.1426275566274707 -0.97321875383412
outer loop
vertex 11.81124 -4.40394 -4.29894
vertex 10.40321 -6.12106 -3.78646
vertex -6.12106 -11.07086 0
endloop
endfacet
facet normal -0.19537180912386926 -0.07817822128462151 -0.977608317229574
outer loop
vertex 11.81124 -4.40394 -4.29894
vertex -8.74347 -6.79423 0
vertex 12.73573 -2.50653 -4.63543
endloop
endfacet
facet normal 0.8342199540333519 -0.4603099986552544 -0.30363098232985364
outer loop
vertex 11.81124 -4.40394 -4.29894
vertex 12.73573 -2.50653 -4.63543
vertex 16.15593 -2.50653 4.7615
endloop
endfacet
facet normal 0.8342218676535543 -0.4603052724175336 -0.3036328897093264
outer loop
vertex 11.81124 -4.40394 -4.29894
vertex 16.15593 -2.50653 4.7615
vertex 15.23145 -4.40394 5.09798
endloop
endfacet
facet normal 0.7080222075308735 -0.6574917141066411 -0.25769982445515865
outer loop
vertex 11.81124 -4.40394 -4.29894
vertex 15.23145 -4.40394 5.09798
vertex 13.82341 -6.12106 5.61047
endloop
endfacet
facet normal 0.7080251559462765 -0.6574885212730464 -0.2576998698902147
outer loop
vertex 11.81124 -4.40394 -4.29894
vertex 13.82341 -6.12106 5.61047
vertex 10.40321 -6.12106 -3.78646
endloop
endfacet
facet normal -0.19306511156310266 -0.09598449526648603 -0.9764798202551677
outer loop
vertex -7.58758 -9.11921 0
vertex -8.74347 -6.79423 0
vertex 11.81124 -4.40394 -4.29894
endloop
endfacet
facet normal -0.18243857697903715 -0.13708903846042975 -0.9736132503021201
outer loop
vertex -7.58758 -9.11921 0
vertex 11.81124 -4.40394 -4.29894
vertex -6.12106 -11.07086 0
endloop
endfacet
facet normal -0.8378769666049589 -0.12997327134714037 -0.5301595397313862
outer loop
vertex -12.73573 -2.50653 4.63543
vertex -13.13881 -0.50649 4.78214
vertex -9.54139 -4.19108 0
endloop
endfacet
facet normal -0.8369100893934455 -0.25653047213138613 -0.48350141586090867
outer loop
vertex -12.73573 -2.50653 4.63543
vertex -9.54139 -4.19108 0
vertex -8.74347 -6.79423 0
endloop
endfacet
facet normal -0.16512039753421862 -0.18922286239586047 -0.9679514257775845
outer loop
vertex -4.40394 -12.56926 0
vertex -6.12106 -11.07086 0
vertex 10.40321 -6.12106 -3.78646
endloop
endfacet
facet normal -0.13305414218928843 -0.25661021318064065 -0.9573127982731969
outer loop
vertex -4.40394 -12.56926 0
vertex 10.40321 -6.12106 -3.78646
vertex -2.50653 -13.55308 0
endloop
endfacet
facet normal -0.9373330943513569 0.0708205481423593 0.3411614283510459
outer loop
vertex -9.71861 -0.50649 14.17906
vertex -9.58379 1.51428 14.12999
vertex -13.00399 1.51428 4.73307
endloop
endfacet
facet normal -0.937333094351357 0.07082054814235922 0.341161428351046
outer loop
vertex -9.71861 -0.50649 14.17906
vertex -13.00399 1.51428 4.73307
vertex -13.13881 -0.50649 4.78214
endloop
endfacet
facet normal 0.20707512463634334 0.009939807009332165 0.9782745488836251
outer loop
vertex -9.71861 -0.50649 14.17906
vertex 10 0 10
vertex -9.58379 1.51428 14.12999
endloop
endfacet
facet normal 0.03383192318470507 -0.47652147078801255 -0.8785116327355338
outer loop
vertex 1.51428 -13.83856 0
vertex -0.50649 -13.98203 0
vertex 8.56926 -7.58758 -3.11896
endloop
endfacet
facet normal -0.8539154688448823 0.424533695465385 0.30099753069074914
outer loop
vertex -8.74347 6.79423 10
vertex -7.58758 9.11921 10
vertex -12.33678 3.47305 4.49022
endloop
endfacet
facet normal 0.025374072539009376 0.35739293625603985 0.9336093645401545
outer loop
vertex -6.11495 6.88967 12.86744
vertex 1.51428 13.83856 10
vertex -0.50649 13.98203 10
endloop
endfacet
facet normal -0.09347272400748255 0.43582978651107485 0.8951621345076723
outer loop
vertex -6.11495 6.88967 12.86744
vertex -0.50649 13.98203 10
vertex -2.50653 13.55308 10
endloop
endfacet
facet normal -0.11135762105754 0.4430924833925167 0.8895327601575208
outer loop
vertex -6.11495 6.88967 12.86744
vertex -2.50653 13.55308 10
vertex -7.74431 5.28964 13.46047
endloop
endfacet
facet normal 0.10208380702216469 0.2816200705333657 0.954080202193004
outer loop
vertex -6.11495 6.88967 12.86744
vertex 3.47305 13.12853 10
vertex 1.51428 13.83856 10
endloop
endfacet
facet normal 0.19145841650732812 0.11740093918132928 0.9744540493157429
outer loop
vertex 6.88967 10.1471 10
vertex -7.74431 5.28964 13.46047
vertex 8.20763 7.99776 10
endloop
endfacet
facet normal 0.6458352337011836 0.3960215715562974 0.6527356017348969
outer loop
vertex 6.88967 10.1471 10
vertex 8.20763 7.99776 10
vertex 14.58471 5.28964 5.33338
endloop
endfacet
facet normal 0.6510816682906677 0.4316068297586819 0.624346222637329
outer loop
vertex 6.88967 10.1471 10
vertex 14.58471 5.28964 5.33338
vertex 12.95536 6.88967 5.92641
endloop
endfacet
facet normal 0.19396505836894645 0.10395333078524056 0.9754851414299377
outer loop
vertex -8.91658 3.47305 13.88715
vertex 8.20763 7.99776 10
vertex -7.74431 5.28964 13.46047
endloop
endfacet
facet normal -0.5997239367951291 0.5281991440691507 0.6011130208534569
outer loop
vertex -8.91658 3.47305 13.88715
vertex -7.74431 5.28964 13.46047
vertex -6.12106 11.07086 10
endloop
endfacet
facet normal -0.6857543497932475 0.5152934537743927 0.5140171478043297
outer loop
vertex -8.91658 3.47305 13.88715
vertex -6.12106 11.07086 10
vertex -7.58758 9.11921 10
endloop
endfacet
facet normal -0.8476548314669979 0.4214211490612342 0.32231273914408703
outer loop
vertex -8.91658 3.47305 13.88715
vertex -7.58758 9.11921 10
vertex -8.74347 6.79423 10
endloop
endfacet
facet normal -0.8571555262604055 0.40982143249531516 0.31197884105935
outer loop
vertex -8.91658 3.47305 13.88715
vertex -8.74347 6.79423 10
vertex -12.33678 3.47305 4.49022
endloop
endfacet
facet normal -0.8834422187981809 0.34078989759033157 0.3215464068300538
outer loop
vertex -8.91658 3.47305 13.88715
vertex -12.33678 3.47305 4.49022
vertex -13.00399 1.51428 4.73307
endloop
endfacet
facet normal -0.8834426030475835 0.3407884466640451 0.32154688886819766
outer loop
vertex -8.91658 3.47305 13.88715
vertex -13.00399 1.51428 4.73307
vertex -9.58379 1.51428 14.12999
endloop
endfacet
facet normal 0.2006302110078115 0.07954232337919409 0.9764325564125771
outer loop
vertex 9.18958 5.52098 10
vertex 8.20763 7.99776 10
vertex -8.91658 3.47305 13.88715
endloop
endfacet
facet normal 0.20402963631992307 0.05170051771164631 0.9775985699516482
outer loop
vertex 9.18958 5.52098 10
vertex -8.91658 3.47305 13.88715
vertex -9.58379 1.51428 14.12999
endloop
endfacet
facet normal 0.20525285395071005 0.045998874757667625 0.977627418532294
outer loop
vertex 9.18958 5.52098 10
vertex -9.58379 1.51428 14.12999
vertex 9.7953 2.81818 10
endloop
endfacet
facet normal 0.6339066546056588 0.14206376307079308 0.7602501170462439
outer loop
vertex 9.18958 5.52098 10
vertex 9.7953 2.81818 10
vertex 15.75698 3.47305 4.9067
endloop
endfacet
facet normal 0.6406297590645906 0.24226689162132195 0.7286290311434118
outer loop
vertex 9.18958 5.52098 10
vertex 15.75698 3.47305 4.9067
vertex 14.58471 5.28964 5.33338
endloop
endfacet
facet normal 0.6390439607334734 0.25335686546331676 0.7262459053052746
outer loop
vertex 9.18958 5.52098 10
vertex 14.58471 5.28964 5.33338
vertex 8.20763 7.99776 10
endloop
endfacet
facet normal 0.6396196729793291 -0.17907721138489738 0.7475413207980044
outer loop
vertex 9.18958 -5.52098 10
vertex 15.23145 -4.40394 5.09798
vertex 16.15593 -2.50653 4.7615
endloop
endfacet
facet normal -0.19289591260301525 0.09590037609729946 -0.9765215229401993
outer loop
vertex -8.74347 6.79423 0
vertex -7.58758 9.11921 0
vertex 12.33678 3.47305 -4.49022
endloop
endfacet
facet normal -0.19875439046594898 0.060922383742999804 -0.9781539528262306
outer loop
vertex -8.74347 6.79423 0
vertex 12.33678 3.47305 -4.49022
vertex -9.54139 4.19108 0
endloop
endfacet
facet normal -0.8383264655735159 0.2569646210976776 -0.48080965113352664
outer loop
vertex -8.74347 6.79423 0
vertex -9.54139 4.19108 0
vertex -12.33678 3.47305 4.49022
endloop
endfacet
facet normal -0.8350020492911718 0.41513067585750096 -0.3611621514522775
outer loop
vertex -8.74347 6.79423 0
vertex -12.33678 3.47305 4.49022
vertex -7.58758 9.11921 0
endloop
endfacet
facet normal -0.7931272237915422 -0.595976192572835 -0.1255451503129779
outer loop
vertex -11.81124 -4.40394 4.29894
vertex -7.58758 -9.11921 0
vertex -6.12106 -11.07086 0
endloop
endfacet
facet normal -0.7820044849626122 -0.6186667379780953 -0.07563367515797687
outer loop
vertex -11.81124 -4.40394 4.29894
vertex -6.12106 -11.07086 0
vertex -10.40321 -6.12106 3.78646
endloop
endfacet
facet normal -0.7697948600930765 -0.6378997955675457 0.022354511606480394
outer loop
vertex -11.81124 -4.40394 4.29894
vertex -10.40321 -6.12106 3.78646
vertex -6.12106 -11.07086 10
endloop
endfacet
facet normal -0.8447571398767865 -0.33802187242701187 -0.4148814148502298
outer loop
vertex -11.81124 -4.40394 4.29894
vertex -12.73573 -2.50653 4.63543
vertex -8.74347 -6.79423 0
endloop
endfacet
facet normal -0.833826931905803 -0.4145464530106059 -0.3645324209516635
outer loop
vertex -11.81124 -4.40394 4.29894
vertex -8.74347 -6.79423 0
vertex -7.58758 -9.11921 0
endloop
endfacet
facet normal -0.20970202722024564 -0.9777653398334998 0
outer loop
vertex -2.50653 -13.55308 10
vertex -2.50653 -13.55308 0
vertex -0.50649 -13.98203 0
endloop
endfacet
facet normal -0.20970202722024564 -0.9777653398334998 0
outer loop
vertex -2.50653 -13.55308 10
vertex -0.50649 -13.98203 0
vertex -0.50649 -13.98203 10
endloop
endfacet
facet normal -0.0942397394925979 -0.4394061046153989 0.8933314875941004
outer loop
vertex -2.50653 -13.55308 10
vertex -0.50649 -13.98203 10
vertex -6.983 -6.12106 13.18338
endloop
endfacet
facet normal 0.2005433477911397 -0.07550479491581157 0.9767709002634359
outer loop
vertex -9.31553 -2.50653 14.03235
vertex -8.39104 -4.40394 13.69587
vertex 9.18958 -5.52098 10
endloop
endfacet
facet normal -0.9187989356956758 -0.2097015957462565 0.3344155446536046
outer loop
vertex -9.31553 -2.50653 14.03235
vertex -9.71861 -0.50649 14.17906
vertex -13.13881 -0.50649 4.78214
endloop
endfacet
facet normal -0.9187989356956758 -0.20970159574625621 0.3344155446536046
outer loop
vertex -9.31553 -2.50653 14.03235
vertex -13.13881 -0.50649 4.78214
vertex -12.73573 -2.50653 4.63543
endloop
endfacet
facet normal -0.8578785854321277 -0.4081042153155394 0.31224234514021226
outer loop
vertex -9.31553 -2.50653 14.03235
vertex -12.73573 -2.50653 4.63543
vertex -8.74347 -6.79423 10
endloop
endfacet
facet normal 0.14820592270022068 0.2158134180230971 0.9651215328018354
outer loop
vertex 5.28964 11.88102 10
vertex 3.47305 13.12853 10
vertex -6.11495 6.88967 12.86744
endloop
endfacet
facet normal 0.1556913630313964 0.19998984483169466 0.9673490897507582
outer loop
vertex 5.28964 11.88102 10
vertex -6.11495 6.88967 12.86744
vertex -7.74431 5.28964 13.46047
endloop
endfacet
facet normal 0.17576782465501337 0.1621953680001159 0.9709780298314434
outer loop
vertex 5.28964 11.88102 10
vertex -7.74431 5.28964 13.46047
vertex 6.88967 10.1471 10
endloop
endfacet
facet normal 0.6433933404102138 0.5937117320617759 0.483271547608581
outer loop
vertex 5.28964 11.88102 10
vertex 6.88967 10.1471 10
vertex 12.95536 6.88967 5.92641
endloop
endfacet
facet normal 0.5652371703205503 0.8230829341909953 0.05514911360628478
outer loop
vertex 5.28964 11.88102 10
vertex 12.95536 6.88967 5.92641
vertex 3.47305 13.12853 10
endloop
endfacet
facet normal 0.6440647117008718 -0.3949359000592188 0.6551383685803234
outer loop
vertex 8.20763 -7.99776 10
vertex 6.88967 -10.1471 10
vertex 13.82341 -6.12106 5.61047
endloop
endfacet
facet normal 0.6474311007325816 -0.3251750109061501 0.6892707610847737
outer loop
vertex 8.20763 -7.99776 10
vertex 13.82341 -6.12106 5.61047
vertex 15.23145 -4.40394 5.09798
endloop
endfacet
facet normal 0.6373480819936069 -0.2526845134059633 0.7279683777911387
outer loop
vertex 8.20763 -7.99776 10
vertex 15.23145 -4.40394 5.09798
vertex 9.18958 -5.52098 10
endloop
endfacet
facet normal 0.20024464808648298 -0.07938946220032535 0.9765241390791441
outer loop
vertex 8.20763 -7.99776 10
vertex 9.18958 -5.52098 10
vertex -8.39104 -4.40394 13.69587
endloop
endfacet
facet normal 0.19153833704797815 -0.11744994588839056 0.9744324377050003
outer loop
vertex 8.20763 -7.99776 10
vertex -8.39104 -4.40394 13.69587
vertex 6.88967 -10.1471 10
endloop
endfacet
facet normal 0.17574734582691393 -0.16217647050811862 0.9709848932132387
outer loop
vertex 5.28964 -11.88102 10
vertex 6.88967 -10.1471 10
vertex -6.983 -6.12106 13.18338
endloop
endfacet
facet normal 0.1486743709347774 -0.2164955595517529 0.9648966805422857
outer loop
vertex 5.28964 -11.88102 10
vertex -6.983 -6.12106 13.18338
vertex 3.47305 -13.12853 10
endloop
endfacet
facet normal 0.10197262453128243 -0.28131334979245975 0.9541825732399158
outer loop
vertex 1.51428 -13.83856 10
vertex 3.47305 -13.12853 10
vertex -6.983 -6.12106 13.18338
endloop
endfacet
facet normal 0.025361002339303107 -0.35720884294412286 0.9336801711950763
outer loop
vertex 1.51428 -13.83856 10
vertex -6.983 -6.12106 13.18338
vertex -0.50649 -13.98203 10
endloop
endfacet
facet normal 0.07081942462059844 -0.9974891523702939 0
outer loop
vertex 1.51428 -13.83856 10
vertex -0.50649 -13.98203 10
vertex -0.50649 -13.98203 0
endloop
endfacet
facet normal 0.07081942462059844 -0.9974891523702939 0
outer loop
vertex 1.51428 -13.83856 10
vertex -0.50649 -13.98203 0
vertex 1.51428 -13.83856 0
endloop
endfacet
facet normal 0.3407890893109086 -0.9401397750370108 0
outer loop
vertex 3.47305 -13.12853 0
vertex 3.47305 -13.12853 10
vertex 1.51428 -13.83856 10
endloop
endfacet
facet normal 0.3407890893109086 -0.9401397750370108 0
outer loop
vertex 3.47305 -13.12853 0
vertex 1.51428 -13.83856 10
vertex 1.51428 -13.83856 0
endloop
endfacet
facet normal 0.2277207796505783 -0.6282165986735256 -0.743967171094531
outer loop
vertex 3.47305 -13.12853 0
vertex 1.51428 -13.83856 0
vertex 8.56926 -7.58758 -3.11896
endloop
endfacet
facet normal 0.2394457261916954 -0.6340932239350844 -0.7352492962037724
outer loop
vertex 3.47305 -13.12853 0
vertex 8.56926 -7.58758 -3.11896
vertex 10.40321 -6.12106 -3.78646
endloop
endfacet
facet normal 0.5084572072907217 -0.7404015023464761 -0.43963266902858916
outer loop
vertex 3.47305 -13.12853 0
vertex 10.40321 -6.12106 -3.78646
vertex 5.28964 -11.88102 0
endloop
endfacet
facet normal -0.8551511319449151 -0.4251480192964274 0.29659012664223133
outer loop
vertex -7.58758 -9.11921 10
vertex -8.74347 -6.79423 10
vertex -12.73573 -2.50653 4.63543
endloop
endfacet
facet normal -0.8519145147077445 -0.4596005970943886 0.25101583770899716
outer loop
vertex -7.58758 -9.11921 10
vertex -12.73573 -2.50653 4.63543
vertex -11.81124 -4.40394 4.29894
endloop
endfacet
facet normal -0.7958374675894507 -0.5980127394611133 0.09499204505128082
outer loop
vertex -7.58758 -9.11921 10
vertex -11.81124 -4.40394 4.29894
vertex -6.12106 -11.07086 10
endloop
endfacet
facet normal -0.6877519002379162 -0.516794464548925 0.5098242884864602
outer loop
vertex -7.58758 -9.11921 10
vertex -6.12106 -11.07086 10
vertex -8.39104 -4.40394 13.69587
endloop
endfacet
facet normal -0.7883050829046234 -0.45712605599176465 0.41183839694733293
outer loop
vertex -7.58758 -9.11921 10
vertex -8.39104 -4.40394 13.69587
vertex -9.31553 -2.50653 14.03235
endloop
endfacet
facet normal -0.8461322803995919 -0.42066419564516006 0.32726411133516736
outer loop
vertex -7.58758 -9.11921 10
vertex -9.31553 -2.50653 14.03235
vertex -8.74347 -6.79423 10
endloop
endfacet
facet normal -0.4603089702257081 -0.8877587802605773 0
outer loop
vertex -4.40394 -12.56926 10
vertex -4.40394 -12.56926 0
vertex -2.50653 -13.55308 0
endloop
endfacet
facet normal -0.4603089702257081 -0.8877587802605773 0
outer loop
vertex -4.40394 -12.56926 10
vertex -2.50653 -13.55308 0
vertex -2.50653 -13.55308 10
endloop
endfacet
facet normal -0.2643756325748472 -0.5098788081192098 0.8186141496038186
outer loop
vertex -4.40394 -12.56926 10
vertex -2.50653 -13.55308 10
vertex -6.983 -6.12106 13.18338
endloop
endfacet
facet normal -0.3588182175502484 -0.524644328157033 0.7720089479317699
outer loop
vertex -4.40394 -12.56926 10
vertex -6.983 -6.12106 13.18338
vertex -8.39104 -4.40394 13.69587
endloop
endfacet
facet normal -0.4754118174836727 -0.5448072210608408 0.690773983063082
outer loop
vertex -4.40394 -12.56926 10
vertex -8.39104 -4.40394 13.69587
vertex -6.12106 -11.07086 10
endloop
endfacet
facet normal -0.6574900448398119 -0.7534632313102891 0
outer loop
vertex -4.40394 -12.56926 10
vertex -6.12106 -11.07086 10
vertex -6.12106 -11.07086 0
endloop
endfacet
facet normal -0.6574900448398119 -0.7534632313102891 0
outer loop
vertex -4.40394 -12.56926 10
vertex -6.12106 -11.07086 0
vertex -4.40394 -12.56926 0
endloop
endfacet
facet normal 0.20767691545342667 -0.015084722974869102 0.9780811571237439
outer loop
vertex 9.7953 -2.81818 10
vertex 10 0 10
vertex -9.71861 -0.50649 14.17906
endloop
endfacet
facet normal 0.20588567192924193 -0.03025432790975478 0.9781082586999119
outer loop
vertex 9.7953 -2.81818 10
vertex -9.71861 -0.50649 14.17906
vertex -9.31553 -2.50653 14.03235
endloop
endfacet
facet normal 0.205514332488085 -0.046057474276558694 0.9775697254954456
outer loop
vertex 9.7953 -2.81818 10
vertex -9.31553 -2.50653 14.03235
vertex 9.18958 -5.52098 10
endloop
endfacet
facet normal 0.6334283809903218 -0.14195657796857247 0.7606686638263943
outer loop
vertex 9.7953 -2.81818 10
vertex 9.18958 -5.52098 10
vertex 16.15593 -2.50653 4.7615
endloop
endfacet
facet normal 0.6361833559996887 -0.07186484166756615 0.7681836903248266
outer loop
vertex 9.7953 -2.81818 10
vertex 16.15593 -2.50653 4.7615
vertex 16.55901 -0.50649 4.61479
endloop
endfacet
facet normal 0.6317725490061346 -0.045889134399348594 0.773794309662697
outer loop
vertex 9.7953 -2.81818 10
vertex 16.55901 -0.50649 4.61479
vertex 10 0 10
endloop
endfacet
facet normal 0.6476289387900418 -0.5909745396095043 0.4809634613720867
outer loop
vertex 11.98946 -7.58758 6.27797
vertex 13.82341 -6.12106 5.61047
vertex 6.88967 -10.1471 10
endloop
endfacet
facet normal 0.6464908542808528 -0.5965700618108061 0.47555623924228335
outer loop
vertex 11.98946 -7.58758 6.27797
vertex 6.88967 -10.1471 10
vertex 5.28964 -11.88102 10
endloop
endfacet
facet normal 0.5647901049458414 -0.8224319297990119 0.06795482471715113
outer loop
vertex 11.98946 -7.58758 6.27797
vertex 5.28964 -11.88102 10
vertex 3.47305 -13.12853 10
endloop
endfacet
facet normal 0.5453538629448276 -0.8382059199093944 0
outer loop
vertex 11.98946 -7.58758 6.27797
vertex 3.47305 -13.12853 10
vertex 3.47305 -13.12853 0
endloop
endfacet
facet normal 0.5656376965299242 -0.8236661695211216 -0.04034894609186621
outer loop
vertex 11.98946 -7.58758 6.27797
vertex 3.47305 -13.12853 0
vertex 5.28964 -11.88102 0
endloop
endfacet
facet normal 0.5998227107834186 -0.794236709553915 -0.09695754135394133
outer loop
vertex 11.98946 -7.58758 6.27797
vertex 5.28964 -11.88102 0
vertex 13.82341 -6.12106 5.61047
endloop
endfacet
endsolid JSxCAD
