<?xml version="1.0" encoding="UTF-8"?>
<!-- Generated by jsxcad -->
<!DOCTYPE svg PUBLIC "-//W3C//DTD SVG 1.1 Tiny//EN" "http://www.w3.org/Graphics/SVG/1.1/DTD/svg11-tiny.dtd">
<svg viewBox="-250 -250 500 500" width="500" height="500" xmlns="http://www.w3.org/2000/svg"><path d="M36.124676648651835,147.1201796141842L29.1754763992556,-94.75916861748216L28.559713037433124,-101.7116322466699z" style="fill:rgb(254,135,135)"/><path d="M34.00638409395261,139.83844134807043L28.559713037433124,-101.7116322466699L26.83925935328007,-109.05755347545943z" style="fill:rgb(252,145,145)"/><path d="M30.536550413686655,132.41310789996962L26.83925935328007,-109.05755347545943L24.0589657173416,-116.52263011703843z" style="fill:rgb(249,154,154)"/><path d="M25.818300111527254,125.13243951534292L24.0589657173416,-116.52263011703843L20.307079201762498,-123.81720499575124z" style="fill:rgb(245,162,162)"/><path d="M20.011569955205108,118.29270795466147L20.307079201762498,-123.81720499575124L15.714827074980255,-130.64748629261794z" style="fill:rgb(239,170,170)"/><path d="M-37.93434288707802,117.21809036278448L-28.437879586757788,-137.64895792715268L-29.78190583190533,-131.71864440490802z" style="fill:rgb(2,145,145)"/><path d="M13.330717790856255,112.18474828688647L15.714827074980255,-130.64748629261794L10.453591137838576,-136.72865481457657z" style="fill:rgb(231,179,179)"/><path d="M-36.27259334126817,111.25888033552128L-25.957434205296583,-142.52833203893638L-28.437879586757788,-137.64895792715268z" style="fill:rgb(10,162,162)"/><path d="M6.0381771726019045,107.07866022955601L10.453591137838576,-136.72865481457657L4.729368360557667,-141.799131910604z" style="fill:rgb(221,188,188)"/><path d="M-33.146566246061,106.34335399419876L-22.430000256996745,-146.1404309018955L-25.957434205296583,-142.52833203893638z" style="fill:rgb(28,183,183)"/><path d="M-1.5661108110059097,103.2078220618484L4.729368360557667,-141.799131910604L-1.2255470907505523,-145.63498849480692z" style="fill:rgb(207,197,197)"/><path d="M-28.666399429890365,102.69725033642402L-17.99440256262359,-148.3219361287793L-22.430000256996745,-146.1404309018955z" style="fill:rgb(61,204,204)"/><path d="M-9.159117854961407,100.75379892691653L-1.2255470907505523,-145.63498849480692L-7.16331819010831,-148.06325877187825z" style="fill:rgb(185,207,207)"/><path d="M-23.009286472514365,100.49221995998882L-12.833105777081238,-148.97288341434222L-17.99440256262359,-148.3219361287793z" style="fill:rgb(107,216,216)"/><path d="M-16.412083257458036,99.83381064759504L-7.16331819010831,-148.06325877187825L-12.833105777081238,-148.97288341434222z" style="fill:rgb(152,215,215)"/><path d="M36.124676648651835,147.1201796141842L36.844194738738295,153.98910355186976L29.1754763992556,-94.75916861748216z" style="fill:rgb(254,135,135)"/><path d="M34.00638409395261,139.83844134807043L36.124676648651835,147.1201796141842L28.559713037433124,-101.7116322466699z" style="fill:rgb(252,145,145)"/><path d="M30.536550413686655,132.41310789996962L34.00638409395261,139.83844134807043L26.83925935328007,-109.05755347545943z" style="fill:rgb(249,154,154)"/><path d="M25.818300111527254,125.13243951534292L30.536550413686655,132.41310789996962L24.0589657173416,-116.52263011703843z" style="fill:rgb(245,162,162)"/><path d="M20.011569955205108,118.29270795466147L25.818300111527254,125.13243951534292L20.307079201762498,-123.81720499575124z" style="fill:rgb(239,170,170)"/><path d="M13.330717790856255,112.18474828688647L20.011569955205108,118.29270795466147L15.714827074980255,-130.64748629261794z" style="fill:rgb(231,179,179)"/><path d="M-37.93434288707802,117.21809036278448L-36.27259334126817,111.25888033552128L-28.437879586757788,-137.64895792715268z" style="fill:rgb(2,145,145)"/><path d="M6.0381771726019045,107.07866022955601L13.330717790856255,112.18474828688647L10.453591137838576,-136.72865481457657z" style="fill:rgb(221,188,188)"/><path d="M-36.27259334126817,111.25888033552128L-33.146566246061,106.34335399419876L-25.957434205296583,-142.52833203893638z" style="fill:rgb(10,162,162)"/><path d="M-1.5661108110059097,103.2078220618484L6.0381771726019045,107.07866022955601L4.729368360557667,-141.799131910604z" style="fill:rgb(207,197,197)"/><path d="M-33.146566246061,106.34335399419876L-28.666399429890365,102.69725033642402L-22.430000256996745,-146.1404309018955z" style="fill:rgb(28,183,183)"/><path d="M-9.159117854961407,100.75379892691653L-1.5661108110059097,103.2078220618484L-1.2255470907505523,-145.63498849480692z" style="fill:rgb(185,207,207)"/><path d="M-28.666399429890365,102.69725033642402L-23.009286472514365,100.49221995998882L-17.99440256262359,-148.3219361287793z" style="fill:rgb(61,204,204)"/><path d="M-16.412083257458036,99.83381064759504L-9.159117854961407,100.75379892691653L-7.16331819010831,-148.06325877187825z" style="fill:rgb(152,215,215)"/><path d="M-23.009286472514365,100.49221995998882L-16.412083257458036,99.83381064759504L-12.833105777081238,-148.97288341434222z" style="fill:rgb(107,216,216)"/><path d="M25.818300111527254,125.13243951534292L15.094265254531088,175.4481264241506L21.19018346591997,174.89046476071778zM25.818300111527254,125.13243951534292L8.439508865588051,174.66848647036048L15.094265254531088,175.4481264241506zM25.818300111527254,125.13243951534292L21.19018346591997,174.89046476071778L26.51941471022273,173.01185346532588zM25.818300111527254,125.13243951534292L1.4503345485205388,172.57443888778246L8.439508865588051,174.66848647036048zM25.818300111527254,125.13243951534292L26.51941471022273,173.01185346532588L30.895021232743037,169.86794602756993zM25.818300111527254,125.13243951534292L-5.636584969638839,169.22815631902867L1.4503345485205388,172.57443888778246zM25.818300111527254,125.13243951534292L30.895021232743037,169.86794602756993L34.15556821670075,165.5537069815344zM25.818300111527254,125.13243951534292L-12.576983807742492,164.73117095973808L-5.636584969638839,169.22815631902867zM25.818300111527254,125.13243951534292L34.15556821670075,165.5537069815344L36.17021007291128,160.2032732191258zM25.818300111527254,125.13243951534292L-19.124368247741177,159.22405756485765L-12.576983807742492,164.73117095973808zM25.818300111527254,125.13243951534292L36.17021007291128,160.2032732191258L36.844194738738295,153.98910355186976zM25.818300111527254,125.13243951534292L-25.03639624009101,152.88551859001808L-19.124368247741177,159.22405756485765zM25.818300111527254,125.13243951534292L36.844194738738295,153.98910355186976L36.124676648651835,147.1201796141842zM25.818300111527254,125.13243951534292L-30.082519594000928,145.9303044360572L-25.03639624009101,152.88551859001808zM25.818300111527254,125.13243951534292L36.124676648651835,147.1201796141842L34.00638409395261,139.83844134807043zM25.818300111527254,125.13243951534292L-34.052887930395094,138.6053709110747L-30.082519594000928,145.9303044360572zM25.818300111527254,125.13243951534292L34.00638409395261,139.83844134807043L30.536550413686655,132.41310789996962zM25.818300111527254,125.13243951534292L-36.76833703628093,131.18375324163844L-34.052887930395094,138.6053709110747zM25.818300111527254,125.13243951534292L-38.090950230528485,123.95586440437485L-36.76833703628093,131.18375324163844zM25.818300111527254,125.13243951534292L-37.93434288707802,117.21809036278448L-38.090950230528485,123.95586440437485zM25.818300111527254,125.13243951534292L20.011569955205108,118.29270795466147L13.330717790856255,112.18474828688647zM25.818300111527254,125.13243951534292L-36.27259334126817,111.25888033552128L-37.93434288707802,117.21809036278448zM25.818300111527254,125.13243951534292L13.330717790856255,112.18474828688647L6.0381771726019045,107.07866022955601zM25.818300111527254,125.13243951534292L-33.146566246061,106.34335399419876L-36.27259334126817,111.25888033552128zM25.818300111527254,125.13243951534292L6.0381771726019045,107.07866022955601L-1.5661108110059097,103.2078220618484zM25.818300111527254,125.13243951534292L-28.666399429890365,102.69725033642402L-33.146566246061,106.34335399419876zM25.818300111527254,125.13243951534292L-1.5661108110059097,103.2078220618484L-9.159117854961407,100.75379892691653zM25.818300111527254,125.13243951534292L-23.009286472514365,100.49221995998882L-28.666399429890365,102.69725033642402zM25.818300111527254,125.13243951534292L-9.159117854961407,100.75379892691653L-16.412083257458036,99.83381064759504zM25.818300111527254,125.13243951534292L-16.412083257458036,99.83381064759504L-23.009286472514365,100.49221995998882z" style="fill:rgb(127,37,217)"/></svg>
