<?xml version="1.0" encoding="UTF-8"?>
<!-- Generated by jsxcad -->
<!DOCTYPE svg PUBLIC "-//W3C//DTD SVG 1.1 Tiny//EN" "http://www.w3.org/Graphics/SVG/1.1/DTD/svg11-tiny.dtd">
<svg viewBox="-250 -250 500 500" width="500" height="500" xmlns="http://www.w3.org/2000/svg"><path d="M34.866112081511986,142.29542897857186L29.093983047894195,-97.01692643435437L27.53360442397822,-106.58171755933189z" style="fill:rgb(253,140,140)"/><path d="M30.536550413686662,132.41310789996965L27.53360442397822,-106.58171755933189L24.058965717341604,-116.52263011703845z" style="fill:rgb(249,152,152)"/><path d="M23.99415744404806,122.78892163604961L24.058965717341604,-116.52263011703845L18.86202477845117,-126.15993460009844z" style="fill:rgb(244,163,163)"/><path d="M15.63948469921125,114.12215922798248L18.86202477845117,-126.15993460009844L12.269584535128153,-134.80161867194818z" style="fill:rgb(235,174,174)"/><path d="M-37.93434288707803,117.21809036278454L-27.733974042242572,-139.40382902508608L-29.78190583190534,-131.71864440490808z" style="fill:rgb(3,147,147)"/><path d="M6.038177172601906,107.07866022955605L12.269584535128153,-134.80161867194818L4.729368360557669,-141.79913191060402z" style="fill:rgb(223,186,186)"/><path d="M-35.38927005354801,109.49230542131754L-23.714541831045107,-145.0885028881307L-27.733974042242572,-139.40382902508608z" style="fill:rgb(17,173,173)"/><path d="M-4.114661309576768,102.22517540162009L4.729368360557669,-141.79913191060402L-3.2191611728258214,-146.60765123282442z" style="fill:rgb(204,199,199)"/><path d="M-30.300630783431167,103.75971190168617L-17.9944025626236,-148.32193612877936L-23.714541831045107,-145.0885028881307z" style="fill:rgb(54,201,201)"/><path d="M-14.052174432684991,99.96572742907519L-3.2191611728258214,-146.60765123282442L-10.988157143028811,-148.8424764744991z" style="fill:rgb(170,212,212)"/><path d="M-23.009286472514376,100.49221995998886L-10.988157143028811,-148.8424764744991L-17.9944025626236,-148.32193612877936z" style="fill:rgb(115,217,217)"/><path d="M34.866112081511986,142.29542897857186L36.76048012535888,151.7609095318164L29.093983047894195,-97.01692643435437z" style="fill:rgb(253,140,140)"/><path d="M30.536550413686662,132.41310789996965L34.866112081511986,142.29542897857186L27.53360442397822,-106.58171755933189z" style="fill:rgb(249,152,152)"/><path d="M23.99415744404806,122.78892163604961L30.536550413686662,132.41310789996965L24.058965717341604,-116.52263011703845z" style="fill:rgb(244,163,163)"/><path d="M15.63948469921125,114.12215922798248L23.99415744404806,122.78892163604961L18.86202477845117,-126.15993460009844z" style="fill:rgb(235,174,174)"/><path d="M-37.93434288707803,117.21809036278454L-35.38927005354801,109.49230542131754L-27.733974042242572,-139.40382902508608z" style="fill:rgb(3,147,147)"/><path d="M6.038177172601906,107.07866022955605L15.63948469921125,114.12215922798248L12.269584535128153,-134.80161867194818z" style="fill:rgb(223,186,186)"/><path d="M-35.38927005354801,109.49230542131754L-30.300630783431167,103.75971190168617L-23.714541831045107,-145.0885028881307z" style="fill:rgb(17,173,173)"/><path d="M-4.114661309576768,102.22517540162009L6.038177172601906,107.07866022955605L4.729368360557669,-141.79913191060402z" style="fill:rgb(204,199,199)"/><path d="M-30.300630783431167,103.75971190168617L-23.009286472514376,100.49221995998886L-17.9944025626236,-148.32193612877936z" style="fill:rgb(54,201,201)"/><path d="M-14.052174432684991,99.96572742907519L-4.114661309576768,102.22517540162009L-3.2191611728258214,-146.60765123282442z" style="fill:rgb(170,212,212)"/><path d="M-23.009286472514376,100.49221995998886L-14.052174432684991,99.96572742907519L-10.988157143028811,-148.8424764744991z" style="fill:rgb(115,217,217)"/><path d="M23.99415744404806,122.78892163604961L12.92732312255609,175.33651378301434L21.190183465919976,174.89046476071786zM23.99415744404806,122.78892163604961L3.80281054217356,173.4154666790727L12.92732312255609,175.33651378301434zM23.99415744404806,122.78892163604961L21.190183465919976,174.89046476071786L28.092451934892367,172.1005876583279zM23.99415744404806,122.78892163604961L-5.63658496963884,169.2281563190287L3.80281054217356,173.4154666790727zM23.99415744404806,122.78892163604961L28.092451934892367,172.1005876583279L33.20138109475632,167.11434852392082zM23.99415744404806,122.78892163604961L-14.815234471233367,162.9996510281443L-5.63658496963884,169.2281563190287zM23.99415744404806,122.78892163604961L33.20138109475632,167.11434852392082L36.170210072911296,160.20327321912583zM23.99415744404806,122.78892163604961L-23.15088266464212,155.07819473815954L-14.815234471233367,162.9996510281443zM23.99415744404806,122.78892163604961L36.170210072911296,160.20327321912583L36.76048012535888,151.7609095318164zM23.99415744404806,122.78892163604961L-30.08251959400094,145.93030443605727L-23.15088266464212,155.07819473815954zM23.99415744404806,122.78892163604961L36.76048012535888,151.7609095318164L34.866112081511986,142.29542897857186zM23.99415744404806,122.78892163604961L-35.105235225764915,136.128163482732L-30.08251959400094,145.93030443605727zM23.99415744404806,122.78892163604961L34.866112081511986,142.29542897857186L30.536550413686662,132.41310789996965zM23.99415744404806,122.78892163604961L-37.81133811228606,126.3253236913304L-35.105235225764915,136.128163482732zM23.99415744404806,122.78892163604961L-37.93434288707803,117.21809036278454L-37.81133811228606,126.3253236913304zM23.99415744404806,122.78892163604961L-35.38927005354801,109.49230542131754L-37.93434288707803,117.21809036278454zM23.99415744404806,122.78892163604961L15.63948469921125,114.12215922798248L6.038177172601906,107.07866022955605zM23.99415744404806,122.78892163604961L-30.300630783431167,103.75971190168617L-35.38927005354801,109.49230542131754zM23.99415744404806,122.78892163604961L6.038177172601906,107.07866022955605L-4.114661309576768,102.22517540162009zM23.99415744404806,122.78892163604961L-23.009286472514376,100.49221995998886L-30.300630783431167,103.75971190168617zM23.99415744404806,122.78892163604961L-4.114661309576768,102.22517540162009L-14.052174432684991,99.96572742907519zM23.99415744404806,122.78892163604961L-14.052174432684991,99.96572742907519L-23.009286472514376,100.49221995998886z" style="fill:rgb(127,37,217)"/></svg>
