<?xml version="1.0" encoding="UTF-8"?>
<!-- Generated by jsxcad -->
<!DOCTYPE svg PUBLIC "-//W3C//DTD SVG 1.1 Tiny//EN" "http://www.w3.org/Graphics/SVG/1.1/DTD/svg11-tiny.dtd">
<svg viewBox="-250 -250 500 500" width="500" height="500" xmlns="http://www.w3.org/2000/svg"><path d="M-152.66161087439073,-53.74853456321553L-164.98004908434925,-36.48368922384705L-98.93685427570551,-117.70324502527785z" style="fill:rgb(30,204,157)"/><path d="M-164.98004908434925,-36.48368922384705L-172.00578876709704,-19.55085877941014L-98.93685427570551,-117.70324502527785z" style="fill:rgb(35,198,181)"/><path d="M-173.25646413559136,-3.57165163108564L-98.93685427570551,-117.70324502527785L-172.00578876709704,-19.55085877941014z" style="fill:rgb(43,193,197)"/><path d="M-96.68604412950295,101.62913253213844L-118.68328999458267,83.54472254072168L-107.52859420514666,96.03206539530825z" style="fill:rgb(30,47,149)"/><path d="M-173.25646413559136,-3.57165163108564L-168.3989261346388,10.802983168642745L-98.93685427570551,-117.70324502527785z" style="fill:rgb(52,190,208)"/><path d="M-140.07910845599704,32.12150214698527L-82.27667635647558,-137.36451756789924L-98.93685427570551,-117.70324502527785z" style="fill:rgb(68,189,222)"/><path d="M-157.29944891597964,22.91288861179852L-98.93685427570551,-117.70324502527785L-168.3989261346388,10.802983168642745z" style="fill:rgb(59,189,215)"/><path d="M23.178242808328267,-161.78694352842928L119.86799555845859,-130.40738523612467L101.15059023967439,-138.11080545536763z" style="fill:rgb(162,245,159)"/><path d="M-63.278195142109524,-152.64812625488003L-82.27667635647558,-137.36451756789924L-89.32689763313896,39.673038709385416z" style="fill:rgb(75,189,225)"/><path d="M-96.68604412950295,101.62913253213844L-168.3989261346388,10.802983168642745L-118.68328999458267,83.54472254072168z" style="fill:rgb(27,52,150)"/><path d="M-57.686977502455015,37.29095798275157L-42.55165720099762,-163.05725102949197L-63.278195142109524,-152.64812625488003z" style="fill:rgb(81,190,227)"/><path d="M153.19844407596943,33.447744241810334L110.5246096526837,110.94797686174068L165.3875444778011,14.260060750147998z" style="fill:rgb(235,67,158)"/><path d="M43.78091916341032,-150.11445822870402L133.377729243827,-119.34687333995798L23.178242808328267,-161.78694352842928z" style="fill:rgb(141,226,206)"/><path d="M141.48575457894063,-88.49773826798668L170.93859629525153,-4.146237883484685L169.85502800215752,-20.939613746711025z" style="fill:rgb(247,151,164)"/><path d="M153.19844407596943,33.447744241810334L95.41907491141022,134.57290117435517L110.5246096526837,110.94797686174068z" style="fill:rgb(228,69,178)"/><path d="M-157.29944891597964,22.91288861179852L-140.07910845599704,32.12150214698527L-98.93685427570551,-117.70324502527785z" style="fill:rgb(65,188,220)"/><path d="M23.178242808328267,-161.78694352842928L133.377729243827,-119.34687333995798L119.86799555845859,-130.40738523612467z" style="fill:rgb(152,236,188)"/><path d="M-42.55165720099762,-163.05725102949197L-23.68827006780569,30.663349650718015L-20.755856024409454,-168.20559982544256z" style="fill:rgb(86,192,229)"/><path d="M-12.415677555663375,166.09856479092582L-77.5714134460187,120.86172873978143L-32.95090030704076,153.47826231559185z" style="fill:rgb(59,21,149)"/><path d="M165.3875444778011,14.260060750147998L170.93859629525153,-4.146237883484685L141.48575457894063,-88.49773826798668z" style="fill:rgb(240,125,187)"/><path d="M-117.16482512866376,37.858354145431285L-82.27667635647558,-137.36451756789924L-140.07910845599704,32.12150214698527z" style="fill:rgb(70,189,223)"/><path d="M44.51422557019739,5.787666801982765L1.403977948535199,-167.82598232396515L-20.755856024409454,-168.20559982544256z" style="fill:rgb(91,193,230)"/><path d="M1.403977948535199,-167.82598232396515L75.12242337548257,-11.257900251022544L23.178242808328267,-161.78694352842928z" style="fill:rgb(97,195,230)"/><path d="M43.78091916341032,-150.11445822870402L140.8065474438975,-105.21900204072114L133.377729243827,-119.34687333995798z" style="fill:rgb(140,225,208)"/><path d="M141.48575457894063,-88.49773826798668L169.85502800215752,-20.939613746711025L140.8065474438975,-105.21900204072114z" style="fill:rgb(247,151,164)"/><path d="M-96.68604412950295,101.62913253213844L-157.29944891597964,22.91288861179852L-168.3989261346388,10.802983168642745z" style="fill:rgb(26,56,158)"/><path d="M121.46825645654482,-50.09921935105154L43.78091916341032,-150.11445822870402L23.178242808328267,-161.78694352842928z" style="fill:rgb(109,201,229)"/><path d="M-12.415677555663375,166.09856479092582L9.892854911936837,172.71891340287036L-31.156661275262103,141.39589224954264z" style="fill:rgb(85,12,162)"/><path d="M-96.68604412950295,101.62913253213844L-107.52859420514666,96.03206539530825L-77.5714134460187,120.86172873978143z" style="fill:rgb(36,40,148)"/><path d="M-117.16482512866376,37.858354145431285L-89.32689763313896,39.673038709385416L-82.27667635647558,-137.36451756789924z" style="fill:rgb(75,189,225)"/><path d="M32.9503701613939,172.8389134860115L-31.156661275262103,141.39589224954264L9.892854911936837,172.71891340287036z" style="fill:rgb(116,9,175)"/><path d="M43.78091916341032,-150.11445822870402L141.48575457894063,-88.49773826798668L140.8065474438975,-105.21900204072114z" style="fill:rgb(129,215,219)"/><path d="M-96.68604412950295,101.62913253213844L-140.07910845599704,32.12150214698527L-157.29944891597964,22.91288861179852z" style="fill:rgb(35,91,207)"/><path d="M153.19844407596943,33.447744241810334L165.3875444778011,14.260060750147998L80.14804603489192,72.510997535237z" style="fill:rgb(227,98,200)"/><path d="M-57.686977502455015,37.29095798275157L-63.278195142109524,-152.64812625488003L-89.32689763313896,39.673038709385416z" style="fill:rgb(79,190,227)"/><path d="M19.070602012074133,133.83320963728372L32.9503701613939,172.8389134860115L55.637481066059635,166.3042306647812z" style="fill:rgb(150,16,185)"/><path d="M76.81695970448487,153.34427720363104L19.070602012074133,133.83320963728372L55.637481066059635,166.3042306647812z" style="fill:rgb(182,31,190)"/><path d="M76.81695970448487,153.34427720363104L95.41907491141022,134.57290117435517L63.22713474912293,98.56742315834467z" style="fill:rgb(207,51,190)"/><path d="M153.19844407596943,33.447744241810334L63.22713474912293,98.56742315834467L95.41907491141022,134.57290117435517z" style="fill:rgb(224,71,188)"/><path d="M165.3875444778011,14.260060750147998L141.48575457894063,-88.49773826798668L135.03978666638048,-69.84584886971301z" style="fill:rgb(240,125,187)"/><path d="M43.78091916341032,-150.11445822870402L135.03978666638048,-69.84584886971301L141.48575457894063,-88.49773826798668z" style="fill:rgb(119,207,226)"/><path d="M-57.686977502455015,37.29095798275157L-23.68827006780569,30.663349650718015L-42.55165720099762,-163.05725102949197z" style="fill:rgb(83,191,228)"/><path d="M-12.415677555663375,166.09856479092582L-55.4165123691133,134.40834326948584L-77.5714134460187,120.86172873978143z" style="fill:rgb(59,21,149)"/><path d="M-117.16482512866376,37.858354145431285L-140.07910845599704,32.12150214698527L-77.5714134460187,120.86172873978143z" style="fill:rgb(51,112,228)"/><path d="M121.46825645654482,-50.09921935105154L135.03978666638048,-69.84584886971301L43.78091916341032,-150.11445822870402z" style="fill:rgb(111,202,229)"/><path d="M10.982369328524843,20.0023183449335L-20.755856024409454,-168.20559982544256L-23.68827006780569,30.663349650718015z" style="fill:rgb(86,192,229)"/><path d="M-96.68604412950295,101.62913253213844L-77.5714134460187,120.86172873978143L-140.07910845599704,32.12150214698527z" style="fill:rgb(35,91,208)"/><path d="M-12.415677555663375,166.09856479092582L-31.156661275262103,141.39589224954264L-55.4165123691133,134.40834326948584z" style="fill:rgb(85,12,162)"/><path d="M121.46825645654482,-50.09921935105154L23.178242808328267,-161.78694352842928L101.20293368459883,-30.22547579604217z" style="fill:rgb(104,198,230)"/><path d="M44.51422557019739,5.787666801982765L-20.755856024409454,-168.20559982544256L10.982369328524843,20.0023183449335z" style="fill:rgb(90,193,230)"/><path d="M165.3875444778011,14.260060750147998L135.03978666638048,-69.84584886971301L80.14804603489192,72.510997535237z" style="fill:rgb(227,103,202)"/><path d="M44.51422557019739,5.787666801982765L75.12242337548257,-11.257900251022544L1.403977948535199,-167.82598232396515z" style="fill:rgb(94,194,230)"/><path d="M101.20293368459883,-30.22547579604217L23.178242808328267,-161.78694352842928L75.12242337548257,-11.257900251022544z" style="fill:rgb(99,196,230)"/><path d="M32.9503701613939,172.8389134860115L-5.913566061429769,141.26218725921822L-31.156661275262103,141.39589224954264z" style="fill:rgb(116,9,175)"/><path d="M-117.16482512866376,37.858354145431285L-55.4165123691133,134.40834326948584L-89.32689763313896,39.673038709385416z" style="fill:rgb(65,123,238)"/><path d="M-117.16482512866376,37.858354145431285L-77.5714134460187,120.86172873978143L-55.4165123691133,134.40834326948584z" style="fill:rgb(58,117,234)"/><path d="M19.070602012074133,133.83320963728372L-5.913566061429769,141.26218725921822L32.9503701613939,172.8389134860115z" style="fill:rgb(150,16,185)"/><path d="M153.19844407596943,33.447744241810334L80.14804603489192,72.510997535237L63.22713474912293,98.56742315834467z" style="fill:rgb(224,74,190)"/><path d="M76.81695970448487,153.34427720363104L42.5202822900673,119.36971848575146L19.070602012074133,133.83320963728372z" style="fill:rgb(182,31,190)"/><path d="M76.81695970448487,153.34427720363104L63.22713474912293,98.56742315834467L42.5202822900673,119.36971848575146z" style="fill:rgb(207,51,190)"/><path d="M-57.686977502455015,37.29095798275157L-89.32689763313896,39.673038709385416L-31.156661275262103,141.39589224954264z" style="fill:rgb(77,130,244)"/><path d="M-89.32689763313896,39.673038709385416L-55.4165123691133,134.40834326948584L-31.156661275262103,141.39589224954264z" style="fill:rgb(73,127,242)"/><path d="M121.46825645654482,-50.09921935105154L80.14804603489192,72.510997535237L135.03978666638048,-69.84584886971301z" style="fill:rgb(223,106,208)"/><path d="M-57.686977502455015,37.29095798275157L-5.913566061429769,141.26218725921822L-23.68827006780569,30.663349650718015z" style="fill:rgb(88,134,248)"/><path d="M-57.686977502455015,37.29095798275157L-31.156661275262103,141.39589224954264L-5.913566061429769,141.26218725921822z" style="fill:rgb(85,133,247)"/><path d="M121.46825645654482,-50.09921935105154L101.20293368459883,-30.22547579604217L80.14804603489192,72.510997535237z" style="fill:rgb(177,128,244)"/><path d="M10.982369328524843,20.0023183449335L-23.68827006780569,30.663349650718015L19.070602012074133,133.83320963728372z" style="fill:rgb(99,137,251)"/><path d="M-23.68827006780569,30.663349650718015L-5.913566061429769,141.26218725921822L19.070602012074133,133.83320963728372z" style="fill:rgb(96,136,250)"/><path d="M101.20293368459883,-30.22547579604217L75.12242337548257,-11.257900251022544L63.22713474912293,98.56742315834467z" style="fill:rgb(146,136,253)"/><path d="M101.20293368459883,-30.22547579604217L63.22713474912293,98.56742315834467L80.14804603489192,72.510997535237z" style="fill:rgb(151,135,252)"/><path d="M44.51422557019739,5.787666801982765L10.982369328524843,20.0023183449335L42.5202822900673,119.36971848575146z" style="fill:rgb(111,139,253)"/><path d="M44.51422557019739,5.787666801982765L63.22713474912293,98.56742315834467L75.12242337548257,-11.257900251022544z" style="fill:rgb(126,139,254)"/><path d="M10.982369328524843,20.0023183449335L19.070602012074133,133.83320963728372L42.5202822900673,119.36971848575146z" style="fill:rgb(108,138,253)"/><path d="M44.51422557019739,5.787666801982765L42.5202822900673,119.36971848575146L63.22713474912293,98.56742315834467z" style="fill:rgb(124,138,254)"/></svg>
