<?xml version="1.0" encoding="UTF-8"?>
<!-- Generated by jsxcad -->
<!DOCTYPE svg PUBLIC "-//W3C//DTD SVG 1.1 Tiny//EN" "http://www.w3.org/Graphics/SVG/1.1/DTD/svg11-tiny.dtd">
<svg viewBox="-250 -250 500 500" width="500" height="500" xmlns="http://www.w3.org/2000/svg"><path d="M30.200412197413648,132.48806196555458L28.44500514040932,-100.68297213706627L23.79454717350138,-116.44740411065531z" style="fill:rgb(251,149,149)"/><path d="M18.82529310133085,117.50729648340288L23.79454717350138,-116.44740411065531L14.780559588392341,-131.43041065383264z" style="fill:rgb(242,167,167)"/><path d="M-38.51377126408678,122.63624747943108L-28.000185813260686,-139.3256010783914L-30.274949175515285,-126.31245738942862z" style="fill:rgb(1,141,141)"/><path d="M3.6841089757331233,105.99651246034358L14.780559588392341,-131.43041065383264L2.884833494470679,-142.87220170607569z" style="fill:rgb(225,185,185)"/><path d="M-35.728309899308265,109.57108646335163L-20.731386418384506,-147.2648708708223L-28.000185813260686,-139.3256010783914z" style="fill:rgb(25,181,181)"/><path d="M-12.463692626041247,100.27790586104892L2.884833494470679,-142.87220170607569L-9.746741711669445,-148.53383931261698z" style="fill:rgb(189,206,206)"/><path d="M-26.50248226800333,101.56096584282749L-9.746741711669445,-148.53383931261698L-20.731386418384506,-147.2648708708223z" style="fill:rgb(109,216,216)"/><path d="M30.200412197413648,132.48806196555458L35.97101154746094,148.13787405414394L28.44500514040932,-100.68297213706627z" style="fill:rgb(251,149,149)"/><path d="M18.82529310133085,117.50729648340288L30.200412197413648,132.48806196555458L23.79454717350138,-116.44740411065531z" style="fill:rgb(242,167,167)"/><path d="M-38.51377126408678,122.63624747943108L-35.728309899308265,109.57108646335163L-28.000185813260686,-139.3256010783914z" style="fill:rgb(1,141,141)"/><path d="M3.6841089757331233,105.99651246034358L18.82529310133085,117.50729648340288L14.780559588392341,-131.43041065383264z" style="fill:rgb(225,185,185)"/><path d="M28.94850078908788,171.34082394714528L3.4839356906501657,173.48381243589947L17.702371804996506,175.42226743497562z" style="fill:rgb(127,37,217)"/><path d="M-35.728309899308265,109.57108646335163L-26.50248226800333,101.56096584282749L-20.731386418384506,-147.2648708708223z" style="fill:rgb(25,181,181)"/><path d="M-12.463692626041247,100.27790586104892L3.6841089757331233,105.99651246034358L2.884833494470679,-142.87220170607569z" style="fill:rgb(189,206,206)"/><path d="M28.94850078908788,171.34082394714528L-11.532983853457674,165.7860014417735L3.4839356906501657,173.48381243589947z" style="fill:rgb(127,37,217)"/><path d="M-26.50248226800333,101.56096584282749L-12.463692626041247,100.27790586104892L-9.746741711669445,-148.53383931261698z" style="fill:rgb(109,216,216)"/><path d="M28.94850078908788,171.34082394714528L-24.990698530204405,153.40136858626758L-11.532983853457674,165.7860014417735zM28.94850078908788,171.34082394714528L35.43512919138738,161.7925034112961L35.97101154746094,148.13787405414394zM28.94850078908788,171.34082394714528L-34.603452745089825,138.18448030851812L-24.990698530204405,153.40136858626758zM28.94850078908788,171.34082394714528L35.97101154746094,148.13787405414394L30.200412197413648,132.48806196555458zM28.94850078908788,171.34082394714528L-38.51377126408678,122.63624747943108L-34.603452745089825,138.18448030851812zM28.94850078908788,171.34082394714528L30.200412197413648,132.48806196555458L18.82529310133085,117.50729648340288zM28.94850078908788,171.34082394714528L-35.728309899308265,109.57108646335163L-38.51377126408678,122.63624747943108zM28.94850078908788,171.34082394714528L18.82529310133085,117.50729648340288L3.6841089757331233,105.99651246034358zM28.94850078908788,171.34082394714528L-26.50248226800333,101.56096584282749L-35.728309899308265,109.57108646335163zM28.94850078908788,171.34082394714528L3.6841089757331233,105.99651246034358L-12.463692626041247,100.27790586104892zM28.94850078908788,171.34082394714528L-12.463692626041247,100.27790586104892L-26.50248226800333,101.56096584282749z" style="fill:rgb(127,37,217)"/></svg>
